<svg xmlns="http://www.w3.org/2000/svg" xmlns:xlink="http://www.w3.org/1999/xlink" xml:space="preserve" version="1.1" style="shape-rendering:geometricPrecision;text-rendering:geometricPrecision;image-rendering:optimizeQuality;" viewBox="0 0 100 125" x="0px" y="0px" fill-rule="evenodd" clip-rule="evenodd"><defs><style type="text/css">
   
    .fil0 {fill:black;fill-rule:nonzero}
   
  </style></defs><g><path class="fil0" d="M30.28 9.51c9.83,0 17.8,7.98 17.8,17.8 0,9.83 -7.97,17.8 -17.8,17.8 -9.83,0 -17.8,-7.97 -17.8,-17.8 0,-9.82 7.97,-17.8 17.8,-17.8zm39.44 66.5c2.59,0 4.69,2.11 4.69,4.69 0,2.58 -2.1,4.69 -4.69,4.69 -2.59,0 -4.68,-2.1 -4.68,-4.69 0,-2.58 2.1,-4.69 4.68,-4.69zm0 2.37c-1.29,0 -2.32,1.03 -2.32,2.32 0,1.28 1.04,2.33 2.32,2.33 1.29,0 2.33,-1.04 2.33,-2.33 0,-1.29 -1.04,-2.32 -2.33,-2.32zm0 -68.31c4.77,0 8.64,3.87 8.64,8.63 0,4.77 -3.87,8.64 -8.64,8.64 -4.76,0 -8.63,-3.87 -8.63,-8.64 0,-4.76 3.87,-8.63 8.63,-8.63zm0 2.36c-3.46,0 -6.27,2.81 -6.27,6.27 0,3.47 2.81,6.28 6.27,6.28 3.47,0 6.28,-2.81 6.28,-6.28 0,-3.46 -2.81,-6.27 -6.28,-6.27zm0 19.77c9.83,0 17.8,7.98 17.8,17.8 0,9.82 -7.97,17.8 -17.8,17.8 -23.25,0 -23.59,-35.6 0,-35.6zm0 2.36c-8.52,0 -15.43,6.91 -15.43,15.44 0,8.53 6.91,15.44 15.43,15.44 8.53,0 15.44,-6.91 15.44,-15.44 0,-8.53 -6.9,-15.44 -15.44,-15.44zm-41 -29.42l42.56 0c11.5,0 20.9,9.41 20.9,20.91l0 47.9c0,11.5 -9.4,20.91 -20.9,20.91l-42.56 0c-11.5,0 -20.9,-9.41 -20.9,-20.91l0 -47.9c0,-11.5 9.4,-20.91 20.9,-20.91zm42.56 2.36l-42.56 0c-10.19,0 -18.54,8.35 -18.54,18.55l0 47.9c0,10.2 8.35,18.55 18.54,18.55l42.56 0c10.19,0 18.54,-8.35 18.54,-18.55l0 -47.9c0,-10.2 -8.35,-18.55 -18.54,-18.55zm-41 47.39c9.83,0 17.8,7.97 17.8,17.8 0,9.83 -7.97,17.8 -17.8,17.8 -9.83,0 -17.8,-7.97 -17.8,-17.8 0,-9.83 7.98,-17.8 17.8,-17.8zm0 2.36c-8.53,0 -15.44,6.91 -15.44,15.44 0,8.52 6.92,15.44 15.44,15.44 8.53,0 15.44,-6.92 15.44,-15.44 0,-8.53 -6.91,-15.44 -15.44,-15.44zm0 -45.38c-8.53,0 -15.44,6.92 -15.44,15.44 0,8.53 6.92,15.44 15.44,15.44 8.53,0 15.44,-6.91 15.44,-15.44 0,-8.53 -6.91,-15.44 -15.44,-15.44z"/></g><text x="0" y="115" fill="#000000" font-size="5px" font-weight="bold" font-family="'Helvetica Neue', Helvetica, Arial-Unicode, Arial, Sans-serif">Created by Rinat Mikiev</text><text x="0" y="120" fill="#000000" font-size="5px" font-weight="bold" font-family="'Helvetica Neue', Helvetica, Arial-Unicode, Arial, Sans-serif">from the Noun Project</text></svg>